<?xml version="1.0" standalone="no"?>
<!DOCTYPE svg PUBLIC "-//W3C//DTD SVG 20010904//EN"
 "http://www.w3.org/TR/2001/REC-SVG-20010904/DTD/svg10.dtd">
<svg version="1.0" xmlns="http://www.w3.org/2000/svg"
 width="82.000000pt" height="82.000000pt" viewBox="0 0 82.000000 82.000000"
 preserveAspectRatio="xMidYMid meet">
<g transform="translate(0.000000,82.000000) scale(0.100000,-0.100000)"
fill="#000000" stroke="none">
<path d="M0 690 l0 -129 198 126 c108 69 199 128 201 130 2 1 -86 3 -197 3
l-202 0 0 -130z"/>
<path d="M451 792 c24 -16 115 -74 202 -130 l157 -101 0 129 0 130 -202 0
-202 0 45 -28z"/>
<path d="M204 652 l-199 -128 -3 -257 -2 -257 405 0 405 0 -2 257 -3 257 -175
114 c-96 62 -187 119 -201 127 -26 14 -33 11 -225 -113z m97 -65 c62 -48 35
-137 -42 -139 -38 -1 -79 39 -79 78 0 54 78 94 121 61z m90 -9 l12 -22 15 22
c8 12 25 22 38 22 30 0 30 0 -1 -60 -14 -27 -25 -58 -25 -70 0 -15 -7 -20 -25
-20 -18 0 -25 5 -25 20 0 12 -11 43 -25 70 -31 60 -31 60 0 60 15 0 29 -8 36
-22z m214 -3 c31 -30 32 -66 2 -101 -55 -63 -156 -5 -126 73 21 56 82 71 124
28z m-425 -275 l0 -80 45 0 c33 0 45 -4 45 -15 0 -12 -14 -15 -65 -15 l-65 0
0 95 c0 88 1 95 20 95 18 0 20 -7 20 -80z m160 -15 c0 -88 -1 -95 -20 -95 -19
0 -20 7 -20 95 0 88 1 95 20 95 19 0 20 -7 20 -95z m170 80 c0 -11 -12 -15
-45 -15 -41 0 -45 -2 -45 -25 0 -22 4 -25 40 -25 29 0 40 -4 40 -15 0 -11 -11
-15 -40 -15 l-40 0 0 -40 c0 -33 -3 -40 -20 -40 -19 0 -20 7 -20 95 l0 95 65
0 c51 0 65 -3 65 -15z m160 0 c0 -11 -12 -15 -45 -15 -41 0 -45 -2 -45 -25 0
-22 4 -25 40 -25 29 0 40 -4 40 -15 0 -11 -11 -15 -40 -15 -36 0 -40 -2 -40
-25 0 -23 4 -25 45 -25 33 0 45 -4 45 -15 0 -12 -14 -15 -65 -15 l-65 0 0 95
0 95 65 0 c51 0 65 -3 65 -15z"/>
<path d="M236 534 c-8 -21 1 -34 24 -34 22 0 33 23 17 39 -16 16 -34 14 -41
-5z"/>
<path d="M532 538 c-15 -18 1 -41 24 -36 23 4 26 41 3 46 -9 1 -21 -3 -27 -10z"/>
</g>
</svg>
